<svg width="12" height="6" viewBox="0 0 12 6" fill="none" xmlns="http://www.w3.org/2000/svg">
<mask id="path-1-inside-1_79_10371" fill="white">
<path d="M11.853 0.1265C11.6569 -0.0421667 11.3388 -0.0421667 11.1427 0.1265L6.00027 4.95618L0.857279 0.1265C0.66122 -0.0421667 0.343103 -0.0421667 0.147044 0.1265C-0.0490147 0.295167 -0.0490147 0.568727 0.147044 0.737377L5.61965 5.87695C5.72417 5.96686 5.86321 6.00537 5.99976 5.9994C6.13678 6.00537 6.27535 5.96686 6.37988 5.87695L11.853 0.736924C12.049 0.56829 12.049 0.295167 11.853 0.1265Z"/>
</mask>
<path d="M11.853 0.1265L12.5051 -0.631578L11.853 0.1265ZM11.1427 0.1265L10.4906 -0.631578L10.474 -0.617356L10.4581 -0.602427L11.1427 0.1265ZM6.00027 4.95618L5.31572 5.68515L6.00031 6.32803L6.68486 5.68511L6.00027 4.95618ZM0.857279 0.1265L1.54183 -0.602462L1.52595 -0.617372L1.50944 -0.631577L0.857279 0.1265ZM0.147044 0.1265L-0.505121 -0.631577H-0.505121L0.147044 0.1265ZM0.147044 0.737377L0.831624 0.00843887L0.815716 -0.00650082L0.799172 -0.0207323L0.147044 0.737377ZM5.61965 5.87695L4.93507 6.60589L4.951 6.62085L4.96756 6.6351L5.61965 5.87695ZM5.99976 5.9994L6.04332 5.00035L5.99969 4.99845L5.95605 5.00036L5.99976 5.9994ZM6.37988 5.87695L7.03196 6.6351L7.04853 6.62085L7.06446 6.60589L6.37988 5.87695ZM11.853 0.736924L11.2008 -0.0211847L11.1843 -0.00695376L11.1684 0.00798532L11.853 0.736924ZM12.5051 -0.631578C11.9341 -1.12281 11.0616 -1.12281 10.4906 -0.631578L11.7949 0.884578C11.6909 0.974083 11.5799 1 11.4978 1C11.4158 1 11.3048 0.974083 11.2008 0.884578L12.5051 -0.631578ZM10.4581 -0.602427L5.31568 4.22726L6.68486 5.68511L11.8273 0.855427L10.4581 -0.602427ZM6.68483 4.22722L1.54183 -0.602462L0.172725 0.855463L5.31572 5.68515L6.68483 4.22722ZM1.50944 -0.631577C0.938436 -1.12281 0.0658861 -1.12281 -0.505121 -0.631577L0.799209 0.884577C0.695156 0.974092 0.58423 1 0.502161 1C0.420093 1 0.309166 0.974092 0.205114 0.884577L1.50944 -0.631577ZM-0.505121 -0.631577C-1.16494 -0.063945 -1.165 0.927828 -0.505084 1.49549L0.799172 -0.0207323C0.910482 0.075017 1 0.236348 1 0.431945C1 0.627537 0.910487 0.788846 0.799209 0.884577L-0.505121 -0.631577ZM-0.537536 1.46631L4.93507 6.60589L6.30423 5.14802L0.831624 0.00843887L-0.537536 1.46631ZM4.96756 6.6351C5.29897 6.92015 5.7015 7.01341 6.04348 6.99844L5.95605 5.00036C6.02493 4.99734 6.14938 5.01357 6.27173 5.1188L4.96756 6.6351ZM5.9562 6.99845C6.29888 7.01339 6.70077 6.91996 7.03196 6.6351L5.7278 5.1188C5.84993 5.01376 5.97468 4.99736 6.04332 5.00035L5.9562 6.99845ZM7.06446 6.60589L12.5376 1.46586L11.1684 0.00798532L5.6953 5.14802L7.06446 6.60589ZM12.5051 1.49503C13.165 0.927362 13.1649 -0.0639756 12.5051 -0.631578L11.2008 0.884578C11.0899 0.789145 11 0.627872 11 0.431748C11 0.235618 11.0898 0.0742956 11.2008 -0.0211847L12.5051 1.49503Z" fill="#615F5F" mask="url(#path-1-inside-1_79_10371)"/>
</svg>
